# This file uses centimeters as units for non-parametric coordinates.

v 20.000000 0.000000 15.000000
v 20.000000 0.000000 -15.000000
v 20.000000 0.000000 12.144304
v 20.000000 0.000000 0.331612
v 20.000000 0.000000 -7.959190
v -4.056032 0.000000 12.144304
v -4.056032 0.000000 15.000000
v -4.056032 0.000000 0.331612
v -4.056032 0.000000 -7.959190
v -4.056032 0.000000 -15.000000
vt 0.063256 0.654621
vt 0.000000 0.654621
vt 0.000000 0.121762
vt 0.063256 0.121761
vt 0.324916 0.654621
vt 0.324916 0.121761
vt 0.508563 0.654621
vt 0.508563 0.121761
vt 0.664523 0.654621
vt 0.664523 0.121761
vn 0.000000 1.000000 0.000000
vn 0.000000 1.000000 0.000000
vn 0.000000 1.000000 0.000000
vn 0.000000 1.000000 0.000000
vn 0.000000 1.000000 0.000000
vn 0.000000 1.000000 0.000000
vn 0.000000 1.000000 0.000000
vn 0.000000 1.000000 0.000000
vn 0.000000 1.000000 0.000000
vn 0.000000 1.000000 0.000000
s 1
f 6/1/1 7/2/2 1/3/3 3/4/4
f 8/5/5 6/1/1 3/4/4 4/6/6
f 9/7/7 8/5/5 4/6/6 5/8/8
f 10/9/9 9/7/7 5/8/8 2/10/10
